 Encoded/Released By : cooldude187
 Format : MPEG-4
 Format profile : Base Media / Version 2
 Codec ID : mp42
 File size : 1.79 GiB
 Duration : 1h 33mn
 Overall bit rate mode : Variable
 Overall bit rate : 2 725 Kbps
 Encoded date : UTC 2012-11-26 17:55:05
 Tagged date : UTC 2012-11-26 19:48:03

 VIDERO INFO:
 
 ID : 1
 Format : AVC
 Format/Info : Advanced Video Codec
 Format profile : Main@L3.1
 Format settings, CABAC : Yes
 Format settings, ReFrames : 4 frames
 Codec ID : avc1
 Codec ID/Info : Advanced Video Coding
 Duration : 1h 33mn
 Bit rate mode : Variable
 Bit rate : 2 560 Kbps
 Width : 1 280 pixels
 Height : 720 pixels
 Display aspect ratio : 16:9
 Frame rate mode : Variable
 Frame rate : 23.976 fps
 Minimum frame rate : 23.810 fps
 Maximum frame rate : 1 000.000 fps
 Color space : YUV
 Chroma subsampling : 4:2:0
 Bit depth : 8 bits
 Scan type : Progressive
 Bits/(Pixel*Frame) : 0.116
 Stream size : 1.68 GiB (94%)
 Writing library : x264 core 120
 Encoded date : UTC 2012-11-26 17:55:05
 Tagged date : UTC 2012-11-26 19:48:03
 Color primaries : BT.709
 Transfer characteristics : BT.709
 Matrix coefficients : BT.709

 
AUDIO INFO: 
 
 ID : 2
 Format : AAC
 Format/Info : Advanced Audio Codec
 Format profile : LC
 Codec ID : 40
 Duration : 1h 33mn
 Bit rate mode : Variable
 Bit rate : 160 Kbps
 Maximum bit rate : 308 Kbps
 Channel(s) : 2 channels
 Channel positions : Front: L R
 Sampling rate : 48.0 KHz
 Compression mode : Lossy
 Delay relative to video : 83ms
 Stream size : 107 MiB (6%)
 Language : English
 Encoded date : UTC 2012-11-26 17:55:05
 Tagged date : UTC 2012-11-26 19:48:03